<svg width="14" height="16" viewBox="0 0 14 16" fill="none" xmlns="http://www.w3.org/2000/svg">
<path d="M1.34625 15.1923C0.962639 15.1923 0.642361 15.0638 0.385417 14.8069C0.128472 14.5499 0 14.2297 0 13.846V3.20521C0 2.8216 0.128472 2.50132 0.385417 2.24437C0.642361 1.98743 0.962639 1.85896 1.34625 1.85896H2.82042V0.44875C2.82042 0.319444 2.86292 0.212291 2.94792 0.127291C3.03292 0.0424303 3.14 0 3.26917 0C3.39847 0 3.50563 0.0424303 3.59063 0.127291C3.67549 0.212291 3.71792 0.319444 3.71792 0.44875V1.85896H9.67958V0.416667C9.67958 0.298056 9.71937 0.198958 9.79896 0.119375C9.87854 0.0397913 9.97764 0 10.0963 0C10.2147 0 10.3138 0.0397913 10.3933 0.119375C10.4731 0.198958 10.5129 0.298056 10.5129 0.416667V1.85896H11.9871C12.3707 1.85896 12.691 1.98743 12.9479 2.24437C13.2049 2.50132 13.3333 2.8216 13.3333 3.20521V13.846C13.3333 14.2297 13.2049 14.5499 12.9479 14.8069C12.691 15.0638 12.3707 15.1923 11.9871 15.1923H1.34625ZM1.34625 14.359H11.9871C12.1154 14.359 12.233 14.3056 12.3398 14.1988C12.4466 14.0919 12.5 13.9744 12.5 13.846V6.53854H0.833333V13.846C0.833333 13.9744 0.886736 14.0919 0.993542 14.1988C1.10035 14.3056 1.21792 14.359 1.34625 14.359ZM0.833333 5.705H12.5V3.20521C12.5 3.07687 12.4466 2.95931 12.3398 2.8525C12.233 2.74569 12.1154 2.69229 11.9871 2.69229H1.34625C1.21792 2.69229 1.10035 2.74569 0.993542 2.8525C0.886736 2.95931 0.833333 3.07687 0.833333 3.20521V5.705ZM6.66667 9.48708C6.49472 9.48708 6.34486 9.42326 6.21708 9.29563C6.08944 9.16799 6.02563 9.01813 6.02563 8.84604C6.02563 8.6741 6.08944 8.52431 6.21708 8.39667C6.34486 8.26903 6.49472 8.20521 6.66667 8.20521C6.83861 8.20521 6.98847 8.26903 7.11625 8.39667C7.24389 8.52431 7.30771 8.6741 7.30771 8.84604C7.30771 9.01813 7.24389 9.16799 7.11625 9.29563C6.98847 9.42326 6.83861 9.48708 6.66667 9.48708ZM3.33333 9.48708C3.16139 9.48708 3.01153 9.42326 2.88375 9.29563C2.75611 9.16799 2.69229 9.01813 2.69229 8.84604C2.69229 8.6741 2.75611 8.52431 2.88375 8.39667C3.01153 8.26903 3.16139 8.20521 3.33333 8.20521C3.50528 8.20521 3.65514 8.26903 3.78292 8.39667C3.91056 8.52431 3.97437 8.6741 3.97437 8.84604C3.97437 9.01813 3.91056 9.16799 3.78292 9.29563C3.65514 9.42326 3.50528 9.48708 3.33333 9.48708ZM10 9.48708C9.82806 9.48708 9.67819 9.42326 9.55042 9.29563C9.42278 9.16799 9.35896 9.01813 9.35896 8.84604C9.35896 8.6741 9.42278 8.52431 9.55042 8.39667C9.67819 8.26903 9.82806 8.20521 10 8.20521C10.1719 8.20521 10.3218 8.26903 10.4496 8.39667C10.5772 8.52431 10.641 8.6741 10.641 8.84604C10.641 9.01813 10.5772 9.16799 10.4496 9.29563C10.3218 9.42326 10.1719 9.48708 10 9.48708ZM6.66667 12.6923C6.49472 12.6923 6.34486 12.6285 6.21708 12.5008C6.08944 12.3732 6.02563 12.2233 6.02563 12.0512C6.02563 11.8793 6.08944 11.7294 6.21708 11.6017C6.34486 11.474 6.49472 11.4102 6.66667 11.4102C6.83861 11.4102 6.98847 11.474 7.11625 11.6017C7.24389 11.7294 7.30771 11.8793 7.30771 12.0512C7.30771 12.2233 7.24389 12.3732 7.11625 12.5008C6.98847 12.6285 6.83861 12.6923 6.66667 12.6923ZM3.33333 12.6923C3.16139 12.6923 3.01153 12.6285 2.88375 12.5008C2.75611 12.3732 2.69229 12.2233 2.69229 12.0512C2.69229 11.8793 2.75611 11.7294 2.88375 11.6017C3.01153 11.474 3.16139 11.4102 3.33333 11.4102C3.50528 11.4102 3.65514 11.474 3.78292 11.6017C3.91056 11.7294 3.97437 11.8793 3.97437 12.0512C3.97437 12.2233 3.91056 12.3732 3.78292 12.5008C3.65514 12.6285 3.50528 12.6923 3.33333 12.6923ZM10 12.6923C9.82806 12.6923 9.67819 12.6285 9.55042 12.5008C9.42278 12.3732 9.35896 12.2233 9.35896 12.0512C9.35896 11.8793 9.42278 11.7294 9.55042 11.6017C9.67819 11.474 9.82806 11.4102 10 11.4102C10.1719 11.4102 10.3218 11.474 10.4496 11.6017C10.5772 11.7294 10.641 11.8793 10.641 12.0512C10.641 12.2233 10.5772 12.3732 10.4496 12.5008C10.3218 12.6285 10.1719 12.6923 10 12.6923Z" fill="#CE7356"/>
</svg>
