<svg width="20" height="20" viewBox="0 0 20 20" fill="none" xmlns="http://www.w3.org/2000/svg">
<g clip-path="url(#clip0_2986_2099)">
<path d="M6.64375 12.8453C6.40742 12.282 5.85117 11.8867 5.20195 11.8867H1.85586C0.992578 11.8867 0.292969 12.5863 0.292969 13.4492V17.2797H3.71914" stroke="#462307" stroke-width="0.75" stroke-miterlimit="10" stroke-linecap="round" stroke-linejoin="round"/>
<path d="M1.91406 10.368C1.96484 11.2152 2.66836 11.8871 3.52891 11.8871C4.42266 11.8871 5.14687 11.1625 5.14687 10.2691V9.19023C5.14687 8.29688 4.42266 7.57227 3.52891 7.57227C3.08203 7.57227 2.67734 7.75352 2.38477 8.04609C2.11406 8.31719 1.93867 8.68398 1.91406 9.09141" stroke="#462307" stroke-width="0.75" stroke-miterlimit="10" stroke-linecap="round" stroke-linejoin="round"/>
<path d="M1.50684 14.0449V17.2808" stroke="#462307" stroke-width="0.75" stroke-miterlimit="10" stroke-linecap="round" stroke-linejoin="round"/>
<path d="M13.3564 12.8453V12.8449C13.5932 12.282 14.149 11.8867 14.7982 11.8867H16.4713H18.1443C19.0076 11.8867 19.7072 12.5863 19.7072 13.4492V14.4309" stroke="#462307" stroke-width="0.75" stroke-miterlimit="10" stroke-linecap="round" stroke-linejoin="round"/>
<path d="M19.7068 15.709V17.2809H18.4936H16.2803" stroke="#462307" stroke-width="0.75" stroke-miterlimit="10" stroke-linecap="round" stroke-linejoin="round"/>
<path d="M16.4715 11.8868C15.5779 11.8868 14.8535 11.1625 14.8535 10.2689V9.19023C14.8535 8.29664 15.5779 7.57227 16.4715 7.57227C17.3651 7.57227 18.0895 8.29664 18.0895 9.19023V10.2689C18.0895 11.1625 17.3651 11.8868 16.4715 11.8868Z" stroke="#462307" stroke-width="0.75" stroke-miterlimit="10" stroke-linecap="round" stroke-linejoin="round"/>
<path d="M18.4932 14.0449V17.2808" stroke="#462307" stroke-width="0.75" stroke-miterlimit="10" stroke-linecap="round" stroke-linejoin="round"/>
<path d="M8.28711 11.8992V10.5469" stroke="#462307" stroke-width="0.75" stroke-miterlimit="10" stroke-linecap="round" stroke-linejoin="round"/>
<path d="M7.1668 12.7246H7.16602L6.64336 12.8449L4.8082 13.2664C4.15664 13.4895 3.71875 14.102 3.71875 14.791V17.2793V18.4926H6.42188" stroke="#462307" stroke-width="0.75" stroke-miterlimit="10" stroke-linecap="round" stroke-linejoin="round"/>
<path d="M7.69922 18.493H16.2809L16.2805 17.2797L16.2801 14.7582C16.2668 14.0828 15.8324 13.4863 15.1914 13.2668L13.3562 12.8449L12.8406 12.7266" stroke="#462307" stroke-width="0.75" stroke-miterlimit="10" stroke-linecap="round" stroke-linejoin="round"/>
<path d="M11.7129 11.907V10.5469" stroke="#462307" stroke-width="0.75" stroke-miterlimit="10" stroke-linecap="round" stroke-linejoin="round"/>
<path d="M11.9398 3.89062C12.3652 3.96172 12.9395 4.35859 12.9395 5.10078V8.27695C12.9395 9.77656 11.7238 10.9918 10.2242 10.9918H9.77578C8.27617 10.9918 7.06055 9.77656 7.06055 8.27695V7.68203" stroke="#462307" stroke-width="0.75" stroke-miterlimit="10" stroke-linecap="round" stroke-linejoin="round"/>
<path d="M11.7432 1.96289H12.5323C13.3631 1.96289 14.0366 2.67188 14.0366 3.5466V5.61578" stroke="#462307" stroke-width="0.75" stroke-miterlimit="10" stroke-linecap="round" stroke-linejoin="round"/>
<path d="M12.9395 5.4375H13.5278C13.9786 5.4375 14.3441 5.80297 14.3441 6.25379V6.86547C14.3441 7.31629 13.9786 7.68176 13.5278 7.68176H12.9395V5.4375Z" stroke="#462307" stroke-width="0.75" stroke-miterlimit="10" stroke-linecap="round" stroke-linejoin="round"/>
<path d="M7.06094 5.64414V7.68086H6.47266C6.02188 7.68086 5.65625 7.31563 5.65625 6.86484V6.25313C5.65625 6.00078 5.77109 5.775 5.95117 5.625" stroke="#462307" stroke-width="0.75" stroke-miterlimit="10" stroke-linecap="round" stroke-linejoin="round"/>
<path d="M8.73535 6.54883V6.93336" stroke="#462307" stroke-width="0.75" stroke-miterlimit="10" stroke-linecap="round" stroke-linejoin="round"/>
<path d="M11.2588 6.54883V6.93336" stroke="#462307" stroke-width="0.75" stroke-miterlimit="10" stroke-linecap="round" stroke-linejoin="round"/>
<path d="M9.26562 8.52734C9.26562 8.93312 9.59457 9.26207 10.0004 9.26207C10.4061 9.26207 10.7351 8.93312 10.7351 8.52734" stroke="#462307" stroke-width="0.75" stroke-miterlimit="10" stroke-linecap="round" stroke-linejoin="round"/>
<path d="M11.2971 4.4725L10.3727 4.90426C9.32723 5.39258 8.19613 5.64488 7.05234 5.64488H5.95117V4.2491C5.95117 2.73406 7.11777 1.50586 8.55688 1.50586H10.7001C11.5132 1.50586 12.1723 2.19977 12.1723 3.05578C12.1723 3.66863 11.8292 4.22395 11.2971 4.4725Z" stroke="#462307" stroke-width="0.75" stroke-miterlimit="10" stroke-linecap="round" stroke-linejoin="round"/>
<path d="M7.16699 12.7248L8.78707 14.3157L10.0087 13.5119L8.28754 11.8984L7.16699 12.7248Z" stroke="#462307" stroke-width="0.75" stroke-miterlimit="10" stroke-linecap="round" stroke-linejoin="round"/>
<path d="M12.8417 12.7248L11.2216 14.3157L10 13.5119L11.7212 11.8984L12.8417 12.7248Z" stroke="#462307" stroke-width="0.75" stroke-miterlimit="10" stroke-linecap="round" stroke-linejoin="round"/>
<path d="M9.26562 14.0005L9.39367 15.0689H10.607L10.7434 14.0005L10.0004 13.5117L9.26562 14.0005Z" stroke="#462307" stroke-width="0.75" stroke-miterlimit="10" stroke-linecap="round" stroke-linejoin="round"/>
<path d="M8.78711 18.4936L9.39379 15.0703H10.6071L11.2138 18.4936" stroke="#462307" stroke-width="0.75" stroke-miterlimit="10" stroke-linecap="round" stroke-linejoin="round"/>
<path d="M5.75293 16.0664V18.4924" stroke="#462307" stroke-width="0.75" stroke-miterlimit="10" stroke-linecap="round" stroke-linejoin="round"/>
<path d="M14.2471 16.0664V18.4924" stroke="#462307" stroke-width="0.75" stroke-miterlimit="10" stroke-linecap="round" stroke-linejoin="round"/>
</g>
<defs>
<clipPath id="clip0_2986_2099">
<rect width="20" height="20" fill="white"/>
</clipPath>
</defs>
</svg>
