<svg width="18" height="18" viewBox="0 0 18 18" fill="none" xmlns="http://www.w3.org/2000/svg">
<g clip-path="url(#clip0_2445_67226)">
<path d="M6.18817 14.4844H2.8125C1.64753 14.4844 0.703125 13.54 0.703125 12.375V4.21875C0.703125 3.05378 1.64753 2.10938 2.8125 2.10938H12.375C13.54 2.10938 14.4844 3.05378 14.4844 4.21875V6.04688" stroke="#462307" stroke-miterlimit="10" stroke-linecap="round" stroke-linejoin="round"/>
<path d="M3.51562 0.703125V3.51562" stroke="#462307" stroke-miterlimit="10" stroke-linecap="round" stroke-linejoin="round"/>
<path d="M7.59375 0.703125V3.51562" stroke="#462307" stroke-miterlimit="10" stroke-linecap="round" stroke-linejoin="round"/>
<path d="M11.6719 0.703125V3.51562" stroke="#462307" stroke-miterlimit="10" stroke-linecap="round" stroke-linejoin="round"/>
<path d="M13.0781 17.2969C15.4081 17.2969 17.2969 15.4081 17.2969 13.0781C17.2969 10.7482 15.4081 8.85938 13.0781 8.85938C10.7482 8.85938 8.85938 10.7482 8.85938 13.0781C8.85938 15.4081 10.7482 17.2969 13.0781 17.2969Z" stroke="#462307" stroke-miterlimit="10" stroke-linecap="round" stroke-linejoin="round"/>
<path d="M14.4844 13.0781H13.0781V11.6719" stroke="#909B6D" stroke-miterlimit="10" stroke-linecap="round" stroke-linejoin="round"/>
<circle cx="3.51562" cy="6.04688" r="0.703125" fill="#462307"/>
<circle cx="6.1875" cy="6.04688" r="0.703125" fill="#462307"/>
<circle cx="9" cy="6.04688" r="0.703125" fill="#462307"/>
<circle cx="3.51562" cy="8.85938" r="0.703125" fill="#462307"/>
<circle cx="6.1875" cy="8.85938" r="0.703125" fill="#462307"/>
<circle cx="3.51562" cy="11.6719" r="0.703125" fill="#462307"/>
<circle cx="6.1875" cy="11.6719" r="0.703125" fill="#462307"/>
<circle cx="11.6719" cy="6.04688" r="0.703125" fill="#462307"/>
</g>
<defs>
<clipPath id="clip0_2445_67226">
<rect width="18" height="18" fill="white"/>
</clipPath>
</defs>
</svg>
