<svg width="12" height="14" viewBox="0 0 12 14" fill="none" xmlns="http://www.w3.org/2000/svg">
<path d="M2.17958 13.141C1.80667 13.141 1.48903 13.0099 1.22667 12.7477C0.964445 12.4853 0.833333 12.1677 0.833333 11.7948V1.47438H0V0.641042H3.33333V0H8.33333V0.641042H11.6667V1.47438H10.8333V11.7948C10.8333 12.1784 10.7049 12.4987 10.4479 12.7556C10.191 13.0126 9.8707 13.141 9.48708 13.141H2.17958ZM10 1.47438H1.66667V11.7948C1.66667 11.9444 1.71472 12.0673 1.81083 12.1635C1.90708 12.2597 2.03 12.3077 2.17958 12.3077H9.48708C9.61542 12.3077 9.73299 12.2543 9.83979 12.1475C9.9466 12.0407 10 11.9231 10 11.7948V1.47438ZM4.00646 10.641H4.83979V3.14104H4.00646V10.641ZM6.82688 10.641H7.66021V3.14104H6.82688V10.641Z" fill="#CE7356"/>
</svg>
