<svg width="32" height="32" viewBox="0 0 32 32" fill="none" xmlns="http://www.w3.org/2000/svg">
<rect width="32" height="32" rx="4" fill="#F3F3F3"/>
<path d="M16.0008 14.8215L11.59 10.4107C11.4328 10.2589 11.2223 10.1749 11.0038 10.1768C10.7853 10.1787 10.5763 10.2663 10.4218 10.4208C10.2673 10.5753 10.1797 10.7843 10.1778 11.0028C10.1759 11.2213 10.2599 11.4318 10.4117 11.589L14.8225 15.9998L10.4117 20.4107C10.2599 20.5678 10.1759 20.7783 10.1778 20.9968C10.1797 21.2153 10.2673 21.4243 10.4218 21.5788C10.5763 21.7333 10.7853 21.821 11.0038 21.8229C11.2223 21.8248 11.4328 21.7408 11.59 21.589L16.0008 17.1782L20.4117 21.589C20.5688 21.7408 20.7793 21.8248 20.9978 21.8229C21.2163 21.821 21.4253 21.7333 21.5798 21.5788C21.7344 21.4243 21.822 21.2153 21.8239 20.9968C21.8258 20.7783 21.7418 20.5678 21.59 20.4107L17.1792 15.9998L21.59 11.589C21.6696 11.5121 21.7331 11.4202 21.7767 11.3185C21.8204 11.2168 21.8434 11.1075 21.8444 10.9968C21.8453 10.8862 21.8242 10.7764 21.7823 10.674C21.7404 10.5716 21.6786 10.4786 21.6003 10.4003C21.5221 10.3221 21.429 10.2602 21.3266 10.2183C21.2242 10.1764 21.1145 10.1553 21.0038 10.1563C20.8932 10.1572 20.7838 10.1802 20.6822 10.2239C20.5805 10.2676 20.4885 10.3311 20.4117 10.4107L16.0008 14.8215Z" fill="#44546F"/>
</svg>
