<svg width="40" height="40" viewBox="0 0 40 40" fill="none" xmlns="http://www.w3.org/2000/svg">
<rect x="0.5" y="0.5" width="39" height="39" rx="7.5" stroke="#CE7356"/>
<mask id="mask0_3363_91139" style="mask-type:alpha" maskUnits="userSpaceOnUse" x="8" y="8" width="24" height="24">
<rect x="8" y="8" width="24" height="24" fill="#D9D9D9"/>
</mask>
<g mask="url(#mask0_3363_91139)">
<path d="M18.1344 29L17.7729 26.1077C17.4538 26.0116 17.1086 25.8603 16.7374 25.6538C16.3663 25.4474 16.0506 25.2263 15.7904 24.9905L13.1229 26.125L11.2577 22.875L13.5634 21.1365C13.5339 20.9558 13.5096 20.7697 13.4904 20.578C13.4711 20.3863 13.4614 20.2001 13.4614 20.0192C13.4614 19.8512 13.4711 19.6747 13.4904 19.4895C13.5096 19.3042 13.5339 19.0955 13.5634 18.8635L11.2577 17.125L13.1229 13.9135L15.7712 15.0288C16.0699 14.7801 16.3929 14.5557 16.7404 14.3557C17.0878 14.1557 17.4255 14.0013 17.7537 13.8923L18.1344 11H21.8654L22.2269 13.9115C22.6103 14.0462 22.949 14.2007 23.2432 14.375C23.5374 14.5493 23.8403 14.7673 24.1519 15.0288L26.8769 13.9135L28.7422 17.125L26.3594 18.9212C26.4146 19.1276 26.4454 19.317 26.4519 19.4895C26.4583 19.6618 26.4614 19.832 26.4614 20C26.4614 20.1552 26.455 20.3189 26.4422 20.4913C26.4294 20.6637 26.3999 20.8724 26.3537 21.1173L28.6979 22.875L26.8327 26.125L24.1519 24.9712C23.8403 25.2327 23.5268 25.4571 23.2114 25.6443C22.8961 25.8314 22.5679 25.9795 22.2269 26.0885L21.8654 29H18.1344ZM18.9999 28H20.9557L21.3249 25.2923C21.8288 25.1589 22.2823 24.9759 22.6854 24.7432C23.0888 24.5106 23.4994 24.1917 23.9172 23.7865L26.4114 24.85L27.4057 23.15L25.2172 21.5058C25.3005 21.2211 25.3557 20.9593 25.3827 20.7203C25.4095 20.4811 25.4229 20.241 25.4229 20C25.4229 19.7462 25.4095 19.5061 25.3827 19.2797C25.3557 19.0536 25.3005 18.8046 25.2172 18.5328L27.4442 16.85L26.4499 15.15L23.8979 16.2193C23.5954 15.8873 23.1977 15.576 22.7047 15.2855C22.2119 14.9952 21.7455 14.8026 21.3057 14.7078L20.9999 12H19.0057L18.6942 14.6885C18.1904 14.7962 17.7272 14.9696 17.3047 15.2087C16.8824 15.4477 16.4622 15.7763 16.0442 16.1943L13.5499 15.15L12.5557 16.85L14.7249 18.4693C14.6416 18.6936 14.5833 18.9372 14.5499 19.2C14.5166 19.4628 14.4999 19.7359 14.4999 20.0192C14.4999 20.2731 14.5166 20.525 14.5499 20.775C14.5833 21.025 14.6352 21.2686 14.7057 21.5058L12.5557 23.15L13.5499 24.85L16.0249 23.8C16.4173 24.1962 16.8246 24.5138 17.2469 24.753C17.6694 24.992 18.1454 25.1782 18.6749 25.3115L18.9999 28ZM19.9729 22.5C20.6704 22.5 21.2615 22.2577 21.7462 21.773C22.2307 21.2885 22.4729 20.6975 22.4729 20C22.4729 19.3025 22.2307 18.7115 21.7462 18.227C21.2615 17.7423 20.6704 17.5 19.9729 17.5C19.2718 17.5 18.6798 17.7423 18.1969 18.227C17.7143 18.7115 17.4729 19.3025 17.4729 20C17.4729 20.6975 17.7143 21.2885 18.1969 21.773C18.6798 22.2577 19.2718 22.5 19.9729 22.5Z" fill="#CE7356"/>
</g>
</svg>
