<svg width="24" height="24" viewBox="0 0 24 24" fill="none" xmlns="http://www.w3.org/2000/svg">
<mask id="mask0_2986_47853" style="mask-type:luminance" maskUnits="userSpaceOnUse" x="0" y="0" width="24" height="24">
<path d="M0 0H24V24H0V0Z" fill="white"/>
</mask>
<g mask="url(#mask0_2986_47853)">
<path d="M6 6.9375C6 3.62381 8.68631 0.937499 12 0.937499C15.3137 0.937499 18 3.62381 18 6.9375C18 10.2512 15.3137 12.9375 12 12.9375C8.68631 12.9375 6 10.2512 6 6.9375Z" stroke="#462307" stroke-width="1.5" stroke-miterlimit="10" stroke-linecap="round" stroke-linejoin="round"/>
<path d="M18.8483 14.2969C19.9409 14.7824 20.815 15.357 21.4775 15.9391C22.4876 16.8265 23.0625 18.1086 23.0625 19.4531V21.1875C23.0625 22.223 22.2231 23.0625 21.1875 23.0625H2.8125C1.77698 23.0625 0.9375 22.223 0.9375 21.1875V19.4531C0.9375 18.1086 1.51242 16.8265 2.52248 15.9391C4.23267 14.4365 7.35169 12.9375 12 12.9375" stroke="#462307" stroke-width="1.5" stroke-miterlimit="10" stroke-linecap="round"/>
</g>
</svg>
