<svg width="20" height="20" viewBox="0 0 20 20" fill="none" xmlns="http://www.w3.org/2000/svg">
<mask id="mask0_2986_2007" style="mask-type:luminance" maskUnits="userSpaceOnUse" x="0" y="0" width="20" height="20">
<path d="M0 0H20V20H0V0Z" fill="white"/>
</mask>
<g mask="url(#mask0_2986_2007)">
<path d="M18.4826 11.1562V9.6498C18.4826 9.35574 18.2442 9.11738 17.9502 9.11738H11.6816" stroke="#462307" stroke-width="0.75" stroke-miterlimit="10" stroke-linecap="round" stroke-linejoin="round"/>
<path d="M18.4824 17.668V12.537" stroke="#462307" stroke-width="0.75" stroke-miterlimit="10" stroke-linecap="round" stroke-linejoin="round"/>
<path d="M10.9258 2.94922V2.09082C10.9258 1.81293 10.712 1.58176 10.435 1.56004L2.84746 0.965389C2.53797 0.941131 2.27344 1.18574 2.27344 1.49617V2.27109" stroke="#462307" stroke-width="0.75" stroke-miterlimit="10" stroke-linecap="round" stroke-linejoin="round"/>
<path d="M11.6817 17.668V9.11797V3.50105C11.6817 3.22312 11.4679 2.99195 11.1909 2.97027L10.9258 2.94949L2.27348 2.27136L2.0916 2.25711C1.78211 2.23285 1.51758 2.47746 1.51758 2.78789V17.668" stroke="#462307" stroke-width="0.75" stroke-miterlimit="10" stroke-linecap="round" stroke-linejoin="round"/>
<path d="M19.0234 17.668H18.4825H11.6816H1.51746H0.976562C0.599023 17.668 0.292969 17.974 0.292969 18.3516C0.292969 18.7291 0.599023 19.0352 0.976562 19.0352H19.0234C19.401 19.0352 19.707 18.7291 19.707 18.3516C19.707 17.974 19.401 17.668 19.0234 17.668Z" stroke="#462307" stroke-width="0.75" stroke-miterlimit="10" stroke-linecap="round" stroke-linejoin="round"/>
<path d="M4.15141 6.07226H2.96555C2.84812 6.07226 2.75293 5.97707 2.75293 5.85969V4.9473C2.75293 4.82988 2.84812 4.73469 2.96555 4.73469H4.15141C4.26883 4.73469 4.36402 4.82988 4.36402 4.9473V5.85969C4.36402 5.97707 4.26883 6.07226 4.15141 6.07226Z" stroke="#462307" stroke-width="0.75" stroke-miterlimit="10" stroke-linecap="round" stroke-linejoin="round"/>
<path d="M7.10746 6.07226H5.9216C5.80418 6.07226 5.70898 5.97707 5.70898 5.85969V4.9473C5.70898 4.82988 5.80418 4.73469 5.9216 4.73469H7.10746C7.22484 4.73469 7.32004 4.82988 7.32004 4.9473V5.85969C7.32004 5.97707 7.22484 6.07226 7.10746 6.07226Z" stroke="#462307" stroke-width="0.75" stroke-miterlimit="10" stroke-linecap="round" stroke-linejoin="round"/>
<path d="M10.0645 6.07226H8.87859C8.76117 6.07226 8.66602 5.97707 8.66602 5.85969V4.9473C8.66602 4.82988 8.76117 4.73469 8.87859 4.73469H10.0645C10.1819 4.73469 10.277 4.82988 10.277 4.9473V5.85969C10.277 5.97707 10.1819 6.07226 10.0645 6.07226Z" stroke="#462307" stroke-width="0.75" stroke-miterlimit="10" stroke-linecap="round" stroke-linejoin="round"/>
<path d="M4.15141 8.70508H2.96555C2.84812 8.70508 2.75293 8.60988 2.75293 8.4925V7.58012C2.75293 7.46269 2.84812 7.3675 2.96555 7.3675H4.15141C4.26883 7.3675 4.36402 7.46269 4.36402 7.58012V8.4925C4.36402 8.60988 4.26883 8.70508 4.15141 8.70508Z" stroke="#462307" stroke-width="0.75" stroke-miterlimit="10" stroke-linecap="round" stroke-linejoin="round"/>
<path d="M7.10746 8.70508H5.9216C5.80418 8.70508 5.70898 8.60988 5.70898 8.4925V7.58012C5.70898 7.46269 5.80418 7.3675 5.9216 7.3675H7.10746C7.22484 7.3675 7.32004 7.46269 7.32004 7.58012V8.4925C7.32004 8.60988 7.22484 8.70508 7.10746 8.70508Z" stroke="#462307" stroke-width="0.75" stroke-miterlimit="10" stroke-linecap="round" stroke-linejoin="round"/>
<path d="M10.0645 8.70508H8.87859C8.76117 8.70508 8.66602 8.60988 8.66602 8.4925V7.58012C8.66602 7.46269 8.76117 7.3675 8.87859 7.3675H10.0645C10.1819 7.3675 10.277 7.46269 10.277 7.58012V8.4925C10.277 8.60988 10.1819 8.70508 10.0645 8.70508Z" stroke="#462307" stroke-width="0.75" stroke-miterlimit="10" stroke-linecap="round" stroke-linejoin="round"/>
<path d="M4.15141 11.3398H2.96555C2.84812 11.3398 2.75293 11.2446 2.75293 11.1273V10.2149C2.75293 10.0975 2.84812 10.0023 2.96555 10.0023H4.15141C4.26883 10.0023 4.36402 10.0975 4.36402 10.2149V11.1273C4.36402 11.2446 4.26883 11.3398 4.15141 11.3398Z" stroke="#462307" stroke-width="0.75" stroke-miterlimit="10" stroke-linecap="round" stroke-linejoin="round"/>
<path d="M5.64699 14.3281H3.02246C2.87359 14.3281 2.75293 14.2075 2.75293 14.0586V13.2601C2.75293 13.1112 2.87359 12.9905 3.02246 12.9905H5.64699C5.79586 12.9905 5.91652 13.1112 5.91652 13.2601V14.0586C5.91652 14.2075 5.79586 14.3281 5.64699 14.3281Z" stroke="#462307" stroke-width="0.75" stroke-miterlimit="10" stroke-linecap="round" stroke-linejoin="round"/>
<path d="M7.10746 11.3398H5.9216C5.80418 11.3398 5.70898 11.2446 5.70898 11.1273V10.2149C5.70898 10.0975 5.80418 10.0023 5.9216 10.0023H7.10746C7.22484 10.0023 7.32004 10.0975 7.32004 10.2149V11.1273C7.32004 11.2446 7.22484 11.3398 7.10746 11.3398Z" stroke="#462307" stroke-width="0.75" stroke-miterlimit="10" stroke-linecap="round" stroke-linejoin="round"/>
<path d="M10.0645 11.3398H8.87859C8.76117 11.3398 8.66602 11.2446 8.66602 11.1273V10.2149C8.66602 10.0975 8.76117 10.0023 8.87859 10.0023H10.0645C10.1819 10.0023 10.277 10.0975 10.277 10.2149V11.1273C10.277 11.2446 10.1819 11.3398 10.0645 11.3398Z" stroke="#462307" stroke-width="0.75" stroke-miterlimit="10" stroke-linecap="round" stroke-linejoin="round"/>
<path d="M7.17383 16.4506V17.668" stroke="#462307" stroke-width="0.75" stroke-miterlimit="10" stroke-linecap="round" stroke-linejoin="round"/>
<path d="M10.2769 17.668V13.1805C10.2769 13.0752 10.1916 12.9899 10.0863 12.9899H7.36441C7.25914 12.9899 7.17383 13.0752 7.17383 13.1805V15.081" stroke="#462307" stroke-width="0.75" stroke-miterlimit="10" stroke-linecap="round" stroke-linejoin="round"/>
<path d="M14.3271 12.5742H13.1307C12.9949 12.5742 12.8848 12.4641 12.8848 12.3283V11.3793C12.8848 11.2434 12.9949 11.1333 13.1307 11.1333H14.3271C14.463 11.1333 14.5731 11.2434 14.5731 11.3793V12.3283C14.5731 12.4641 14.463 12.5742 14.3271 12.5742Z" stroke="#462307" stroke-width="0.75" stroke-miterlimit="10" stroke-linecap="round" stroke-linejoin="round"/>
<path d="M14.3271 15.2773H13.1307C12.9949 15.2773 12.8848 15.1672 12.8848 15.0314V14.0824C12.8848 13.9466 12.9949 13.8364 13.1307 13.8364H14.3271C14.463 13.8364 14.5731 13.9466 14.5731 14.0824V15.0314C14.5731 15.1672 14.463 15.2773 14.3271 15.2773Z" stroke="#462307" stroke-width="0.75" stroke-miterlimit="10" stroke-linecap="round" stroke-linejoin="round"/>
<path d="M17.0517 12.5742H15.8554C15.7195 12.5742 15.6094 12.4641 15.6094 12.3283V11.3793C15.6094 11.2434 15.7195 11.1333 15.8554 11.1333H17.0517C17.1876 11.1333 17.2977 11.2434 17.2977 11.3793V12.3283C17.2977 12.4641 17.1876 12.5742 17.0517 12.5742Z" stroke="#462307" stroke-width="0.75" stroke-miterlimit="10" stroke-linecap="round" stroke-linejoin="round"/>
<path d="M17.0517 15.2773H15.8554C15.7195 15.2773 15.6094 15.1672 15.6094 15.0314V14.0824C15.6094 13.9466 15.7195 13.8364 15.8554 13.8364H17.0517C17.1876 13.8364 17.2977 13.9466 17.2977 14.0824V15.0314C17.2977 15.1672 17.1876 15.2773 17.0517 15.2773Z" stroke="#462307" stroke-width="0.75" stroke-miterlimit="10" stroke-linecap="round" stroke-linejoin="round"/>
</g>
</svg>
