<svg width="32" height="32" viewBox="0 0 32 32" fill="none" xmlns="http://www.w3.org/2000/svg">
<circle cx="16" cy="16" r="15.5" transform="matrix(-1 0 0 1 32 0)" fill="#FAF9F6" stroke="#6F7C8E"/>
<path fill-rule="evenodd" clip-rule="evenodd" d="M17.7071 19.7084C17.5182 19.8952 17.2632 20 16.9976 20C16.7319 20 16.477 19.8952 16.2881 19.7084L13.3231 16.7694C13.1081 16.5514 13.0011 16.2694 13.0011 15.9904C13.0011 15.7114 13.1081 15.4344 13.3231 15.2214L16.2781 12.2914C16.4671 12.1049 16.722 12.0002 16.9876 12.0002C17.2531 12.0002 17.508 12.1049 17.6971 12.2914C17.7902 12.3833 17.8642 12.4927 17.9147 12.6134C17.9653 12.7341 17.9913 12.8636 17.9913 12.9944C17.9913 13.1252 17.9653 13.2548 17.9147 13.3755C17.8642 13.4961 17.7902 13.6056 17.6971 13.6974L15.3801 15.9954L17.7071 18.3024C17.7999 18.3945 17.8736 18.504 17.9238 18.6246C17.9741 18.7453 18 18.8747 18 19.0054C18 19.1361 17.9741 19.2656 17.9238 19.3862C17.8736 19.5069 17.7999 19.6164 17.7071 19.7084Z" fill="#6F7C8E"/>
</svg>
