<svg width="32" height="32" viewBox="0 0 32 32" fill="none" xmlns="http://www.w3.org/2000/svg">
<circle cx="16" cy="16" r="15.5" fill="#FAF9F6" stroke="#CE7356"/>
<path fill-rule="evenodd" clip-rule="evenodd" d="M14.2929 19.7084C14.4818 19.8952 14.7368 20 15.0024 20C15.2681 20 15.523 19.8952 15.7119 19.7084L18.6769 16.7694C18.8919 16.5514 18.9989 16.2694 18.9989 15.9904C18.9989 15.7114 18.8919 15.4344 18.6769 15.2214L15.7219 12.2914C15.5329 12.1049 15.278 12.0002 15.0124 12.0002C14.7469 12.0002 14.492 12.1049 14.3029 12.2914C14.2098 12.3833 14.1358 12.4927 14.0853 12.6134C14.0347 12.7341 14.0087 12.8636 14.0087 12.9944C14.0087 13.1252 14.0347 13.2548 14.0853 13.3755C14.1358 13.4961 14.2098 13.6056 14.3029 13.6974L16.6199 15.9954L14.2929 18.3024C14.2001 18.3945 14.1264 18.504 14.0762 18.6246C14.0259 18.7453 14 18.8747 14 19.0054C14 19.1361 14.0259 19.2656 14.0762 19.3862C14.1264 19.5069 14.2001 19.6164 14.2929 19.7084Z" fill="#CE7356"/>
</svg>
