<svg width="32" height="32" viewBox="0 0 32 32" fill="none" xmlns="http://www.w3.org/2000/svg">
<circle cx="16" cy="16" r="16" fill="white"/>
<mask id="mask0_2171_91558" style="mask-type:alpha" maskUnits="userSpaceOnUse" x="4" y="4" width="24" height="24">
<rect x="4" y="4" width="24" height="24" fill="#D9D9D9"/>
</mask>
<g mask="url(#mask0_2171_91558)">
<path d="M11.6155 23.9997C11.1712 23.9997 10.7908 23.8416 10.4745 23.5252C10.1582 23.2089 10 22.8286 10 22.3842V9.99972H9.5C9.35833 9.99972 9.23958 9.95172 9.14375 9.85572C9.04792 9.75972 9 9.6408 9 9.49897C9 9.35714 9.04792 9.23847 9.14375 9.14297C9.23958 9.04747 9.35833 8.99972 9.5 8.99972H13C13 8.79339 13.0766 8.61355 13.2298 8.46022C13.3829 8.30705 13.5627 8.23047 13.7692 8.23047H18.2308C18.4373 8.23047 18.6171 8.30705 18.7703 8.46022C18.9234 8.61355 19 8.79339 19 8.99972H22.5C22.6417 8.99972 22.7604 9.04772 22.8562 9.14372C22.9521 9.23972 23 9.35864 23 9.50047C23 9.6423 22.9521 9.76097 22.8562 9.85647C22.7604 9.95197 22.6417 9.99972 22.5 9.99972H22V22.3842C22 22.8286 21.8418 23.2089 21.5255 23.5252C21.2092 23.8416 20.8288 23.9997 20.3845 23.9997H11.6155ZM21 9.99972H11V22.3842C11 22.5637 11.0577 22.7112 11.173 22.8267C11.2885 22.9421 11.436 22.9997 11.6155 22.9997H20.3845C20.564 22.9997 20.7115 22.9421 20.827 22.8267C20.9423 22.7112 21 22.5637 21 22.3842V9.99972ZM14.3082 20.9997C14.4503 20.9997 14.569 20.9518 14.6645 20.856C14.76 20.7601 14.8078 20.6414 14.8078 20.4997V12.4997C14.8078 12.3581 14.7597 12.2393 14.6637 12.1435C14.5677 12.0476 14.4488 11.9997 14.307 11.9997C14.1652 11.9997 14.0465 12.0476 13.951 12.1435C13.8555 12.2393 13.8078 12.3581 13.8078 12.4997V20.4997C13.8078 20.6414 13.8558 20.7601 13.9518 20.856C14.0476 20.9518 14.1664 20.9997 14.3082 20.9997ZM17.693 20.9997C17.8348 20.9997 17.9535 20.9518 18.049 20.856C18.1445 20.7601 18.1923 20.6414 18.1923 20.4997V12.4997C18.1923 12.3581 18.1442 12.2393 18.0483 12.1435C17.9524 12.0476 17.8336 11.9997 17.6917 11.9997C17.5497 11.9997 17.431 12.0476 17.3355 12.1435C17.24 12.2393 17.1923 12.3581 17.1923 12.4997V20.4997C17.1923 20.6414 17.2403 20.7601 17.3363 20.856C17.4323 20.9518 17.5512 20.9997 17.693 20.9997Z" fill="#CE7356"/>
</g>
</svg>
