<svg width="46" height="39" viewBox="0 0 46 39" fill="none" xmlns="http://www.w3.org/2000/svg">
<path d="M4.5 30.75V0.75H41.25V30.75" stroke="#462307" stroke-width="1.5" stroke-miterlimit="10" stroke-linecap="round" stroke-linejoin="round"/>
<path d="M22.875 19.5C24.9461 19.5 26.625 17.8211 26.625 15.75C26.625 13.6789 24.9461 12 22.875 12C20.8039 12 19.125 13.6789 19.125 15.75C19.125 17.8211 20.8039 19.5 22.875 19.5Z" stroke="#462307" stroke-width="1.5" stroke-miterlimit="10" stroke-linecap="round" stroke-linejoin="round"/>
<path d="M22.875 8.25V12" stroke="#462307" stroke-width="1.5" stroke-miterlimit="10" stroke-linecap="round" stroke-linejoin="round"/>
<path d="M22.875 19.5V23.25" stroke="#462307" stroke-width="1.5" stroke-miterlimit="10" stroke-linecap="round" stroke-linejoin="round"/>
<path d="M16.3799 19.5L19.6275 17.625" stroke="#462307" stroke-width="1.5" stroke-miterlimit="10" stroke-linecap="round" stroke-linejoin="round"/>
<path d="M26.1226 13.875L29.3702 12" stroke="#462307" stroke-width="1.5" stroke-miterlimit="10" stroke-linecap="round" stroke-linejoin="round"/>
<path d="M29.3702 19.5L26.1226 17.625" stroke="#462307" stroke-width="1.5" stroke-miterlimit="10" stroke-linecap="round" stroke-linejoin="round"/>
<path d="M19.6275 13.875L16.3799 12" stroke="#462307" stroke-width="1.5" stroke-miterlimit="10" stroke-linecap="round" stroke-linejoin="round"/>
<path d="M0.75 30.75V34.5C0.75 36.571 2.42897 38.25 4.5 38.25H41.25C43.321 38.25 45 36.571 45 34.5V30.75H0.75Z" stroke="#462307" stroke-width="1.5" stroke-miterlimit="10" stroke-linecap="round" stroke-linejoin="round"/>
</svg>
