<svg width="18" height="18" viewBox="0 0 18 18" fill="none" xmlns="http://www.w3.org/2000/svg">
<path d="M9 18C7.755 18 6.585 17.7638 5.49 17.2915C4.395 16.8192 3.4425 16.1782 2.6325 15.3685C1.8225 14.5588 1.18125 13.6067 0.70875 12.512C0.23625 11.4175 0 10.2479 0 9.00325C0 7.75875 0.23625 6.58867 0.70875 5.493C1.18125 4.3975 1.8225 3.4445 2.6325 2.634C3.4425 1.8235 4.395 1.18192 5.49 0.70925C6.585 0.236417 7.755 0 9 0C10.2462 0 11.4125 0.233666 12.499 0.700999C13.5855 1.16833 14.5403 1.8135 15.3635 2.6365C16.1865 3.45967 16.8317 4.4145 17.299 5.501C17.7663 6.5875 18 7.75383 18 9C18 9.32583 17.9798 9.6435 17.9395 9.953C17.899 10.2625 17.8448 10.5692 17.777 10.873C17.7437 11.0025 17.6709 11.1038 17.5588 11.177C17.4466 11.25 17.3257 11.2679 17.1962 11.2308C17.0667 11.1936 16.9635 11.1182 16.8865 11.0045C16.8097 10.8908 16.7879 10.765 16.8212 10.627C16.8852 10.3642 16.9311 10.0962 16.9587 9.823C16.9862 9.55 17 9.27567 17 9C17 7.888 16.7927 6.85075 16.378 5.88825C15.9632 4.92558 15.3891 4.07758 14.6557 3.34425C13.9224 2.61092 13.0744 2.03683 12.1117 1.622C11.1493 1.20733 10.112 1 9 1C6.76667 1 4.875 1.775 3.325 3.325C1.775 4.875 1 6.76667 1 9C1 11.2333 1.775 13.125 3.325 14.675C4.875 16.225 6.76667 17 9 17C9.8525 17 10.6663 16.8753 11.4413 16.626C12.2163 16.3767 12.9377 16.0218 13.6058 15.5615C13.7238 15.4923 13.8497 15.4658 13.9837 15.482C14.1176 15.4983 14.2211 15.5633 14.2943 15.677C14.3839 15.7948 14.4146 15.9208 14.3863 16.0548C14.3578 16.1888 14.2867 16.2923 14.173 16.3655C13.4153 16.8872 12.6054 17.29 11.7432 17.574C10.8811 17.858 9.96667 18 9 18ZM15.9625 14.5C15.7528 14.5 15.5753 14.4276 15.4298 14.2828C15.2843 14.1381 15.2115 13.9608 15.2115 13.751C15.2115 13.5413 15.2839 13.3637 15.4288 13.2182C15.5736 13.0727 15.7508 13 15.9605 13C16.1702 13 16.3477 13.0724 16.4932 13.2172C16.6388 13.3619 16.7115 13.5392 16.7115 13.749C16.7115 13.9587 16.6391 14.1363 16.4943 14.2818C16.3496 14.4273 16.1723 14.5 15.9625 14.5ZM9.5 8.79225L13 12.2923C13.0937 12.3859 13.1437 12.5007 13.15 12.6365C13.1563 12.7725 13.1063 12.8937 13 13C12.8937 13.1063 12.7758 13.1595 12.6462 13.1595C12.5167 13.1595 12.3988 13.1063 12.2923 13L8.74225 9.45C8.65508 9.36283 8.59292 9.27142 8.55575 9.17575C8.51858 9.07992 8.5 8.98092 8.5 8.87875V4.5C8.5 4.35833 8.548 4.23958 8.644 4.14375C8.74 4.04792 8.85892 4 9.00075 4C9.14258 4 9.26125 4.04792 9.35675 4.14375C9.45225 4.23958 9.5 4.35833 9.5 4.5V8.79225Z" fill="#CE7356"/>
</svg>
