<svg width="18" height="18" viewBox="0 0 18 18" fill="none" xmlns="http://www.w3.org/2000/svg">
<path d="M6.87675 18L6.51525 15.1077C6.19608 15.0116 5.85092 14.8603 5.47975 14.6538C5.10858 14.4474 4.79292 14.2263 4.53275 13.9905L1.86525 15.125L0 11.875L2.30575 10.1365C2.27625 9.95583 2.25192 9.76967 2.23275 9.578C2.21342 9.38633 2.20375 9.20008 2.20375 9.01925C2.20375 8.85125 2.21342 8.67467 2.23275 8.4895C2.25192 8.30417 2.27625 8.0955 2.30575 7.8635L0 6.125L1.86525 2.9135L4.5135 4.02875C4.81217 3.78008 5.13525 3.55575 5.48275 3.35575C5.83008 3.15575 6.16783 3.00125 6.496 2.89225L6.87675 0H10.6077L10.9693 2.9115C11.3526 3.04617 11.6913 3.20067 11.9855 3.375C12.2797 3.54933 12.5826 3.76725 12.8943 4.02875L15.6193 2.9135L17.4845 6.125L15.1018 7.92125C15.1569 8.12758 15.1878 8.317 15.1943 8.4895C15.2006 8.66183 15.2038 8.832 15.2038 9C15.2038 9.15517 15.1973 9.31892 15.1845 9.49125C15.1717 9.66375 15.1422 9.87242 15.096 10.1173L17.4403 11.875L15.575 15.125L12.8943 13.9712C12.5826 14.2327 12.2691 14.4571 11.9538 14.6443C11.6384 14.8314 11.3103 14.9795 10.9693 15.0885L10.6077 18H6.87675ZM7.74225 17H9.698L10.0673 14.2923C10.5711 14.1589 11.0246 13.9759 11.4277 13.7432C11.8311 13.5106 12.2417 13.1917 12.6595 12.7865L15.1538 13.85L16.148 12.15L13.9595 10.5058C14.0428 10.2211 14.098 9.95925 14.125 9.72025C14.1518 9.48108 14.1652 9.241 14.1652 9C14.1652 8.74617 14.1518 8.50608 14.125 8.27975C14.098 8.05358 14.0428 7.80458 13.9595 7.53275L16.1865 5.85L15.1923 4.15L12.6403 5.21925C12.3378 4.88725 11.94 4.576 11.447 4.2855C10.9542 3.99517 10.4878 3.80258 10.048 3.70775L9.74225 1H7.748L7.4365 3.6885C6.93267 3.79617 6.4695 3.96958 6.047 4.20875C5.62467 4.44775 5.2045 4.77625 4.7865 5.19425L2.29225 4.15L1.298 5.85L3.46725 7.46925C3.38392 7.69358 3.32558 7.93717 3.29225 8.2C3.25892 8.46283 3.24225 8.73592 3.24225 9.01925C3.24225 9.27308 3.25892 9.525 3.29225 9.775C3.32558 10.025 3.3775 10.2686 3.448 10.5058L1.298 12.15L2.29225 13.85L4.76725 12.8C5.15958 13.1962 5.56692 13.5138 5.98925 13.753C6.41175 13.992 6.88775 14.1782 7.41725 14.3115L7.74225 17ZM8.71525 11.5C9.41275 11.5 10.0038 11.2577 10.4885 10.773C10.973 10.2885 11.2153 9.6975 11.2153 9C11.2153 8.3025 10.973 7.7115 10.4885 7.227C10.0038 6.74233 9.41275 6.5 8.71525 6.5C8.01408 6.5 7.42208 6.74233 6.93925 7.227C6.45658 7.7115 6.21525 8.3025 6.21525 9C6.21525 9.6975 6.45658 10.2885 6.93925 10.773C7.42208 11.2577 8.01408 11.5 8.71525 11.5Z" fill="#CE7356"/>
</svg>
